<svg xmlns="http://www.w3.org/2000/svg" width="115" height="7.999" viewBox="0 0 115 7.999">
  <path id="about-underline" d="M106.373,26.656l-7.187,3.851-2.949-1.614h0l-4.091-2.238L85,30.507h0l-6.974-3.85-7.187,3.851h0L63.8,26.656l-7.146,3.851-6.935-3.851-7.212,3.851-7.029-3.851-7.129,3.851-6.974-3.851-7.187,3.851L7.145,26.656.237,30.38V26.235l6.908-3.727,7.041,3.855,7.187-3.855,6.974,3.855,7.129-3.855,7.029,3.855,7.212-3.855,6.931,3.855.691-.371L63.8,22.508l.021.012.022-.012v.023l7,3.831,7.187-3.855L85,26.363l7.145-3.855,7.041,3.855,7.187-3.855,6.974,3.855,1.889-1.021v4.145l-1.889,1.021Z" transform="translate(-0.236 -22.508)" fill="#feb332"/>
</svg>
