<svg xmlns="http://www.w3.org/2000/svg" width="2049" height="595.66" viewBox="0 0 2049 595.66">
  <defs>
    <style>
      .cls-1 {
        fill: #fff;
      }
    </style>
  </defs>
  <path id="Subtraction_16" data-name="Subtraction 16" class="cls-1" d="M2049,745H0V225.36a283.632,283.632,0,0,1,34.046-34.12,205.175,205.175,0,0,1,34.768-23.684c22.673-12.087,46.075-18.216,69.556-18.216a139.132,139.132,0,0,1,37.318,5.169,160.709,160.709,0,0,1,35.721,14.957A201.7,201.7,0,0,1,244.9,193.388a258.179,258.179,0,0,1,30.621,32.067,247.319,247.319,0,0,0,30.947,32.089A203.247,203.247,0,0,0,340.723,281.5a167.431,167.431,0,0,0,36.645,14.987,145.134,145.134,0,0,0,38.107,5.181c23.815,0,47.149-6.075,69.353-18.055,23.592-12.728,45.705-32.047,65.725-57.42v-.737A283.657,283.657,0,0,1,584.68,191.24a205.039,205.039,0,0,1,34.767-23.684C642.12,155.468,665.522,149.34,689,149.34a139.132,139.132,0,0,1,37.318,5.169,160.68,160.68,0,0,1,35.722,14.957,201.588,201.588,0,0,1,33.488,23.923,258.263,258.263,0,0,1,30.62,32.067,247.35,247.35,0,0,0,30.948,32.09A203.246,203.246,0,0,0,891.357,281.5,167.493,167.493,0,0,0,928,296.491a145.092,145.092,0,0,0,38.107,5.181c23.869,0,47.252-6.1,69.5-18.134,23.642-12.787,45.8-32.195,65.845-57.684v-.4a283.69,283.69,0,0,1,34.126-34.215,205.078,205.078,0,0,1,34.768-23.684c22.674-12.087,46.076-18.216,69.556-18.216a139.122,139.122,0,0,1,37.317,5.169,160.718,160.718,0,0,1,35.721,14.957,201.53,201.53,0,0,1,33.488,23.923,258.164,258.164,0,0,1,30.62,32.067A247.375,247.375,0,0,0,1408,257.546a203.289,203.289,0,0,0,34.259,23.957,167.4,167.4,0,0,0,36.644,14.988,145.112,145.112,0,0,0,38.107,5.18c23.871,0,47.258-6.1,69.509-18.14,23.645-12.791,45.8-32.2,65.854-57.7v-.379A283.607,283.607,0,0,1,1686.5,191.24a205.047,205.047,0,0,1,34.768-23.684c22.673-12.087,46.075-18.216,69.557-18.216a139.1,139.1,0,0,1,37.316,5.169,160.733,160.733,0,0,1,35.721,14.957,201.582,201.582,0,0,1,33.488,23.923,258.3,258.3,0,0,1,30.621,32.067,247.362,247.362,0,0,0,30.947,32.09,203.329,203.329,0,0,0,34.26,23.957,167.4,167.4,0,0,0,36.644,14.988,149.089,149.089,0,0,0,19.181,3.9V745Z" transform="translate(0 -149.34)"/>
</svg>
