<svg xmlns="http://www.w3.org/2000/svg" width="2049" height="992.66" viewBox="0 0 2049 992.66">
  <defs>
    <style>
      .cls-1 {
        fill: #fff;
      }
    </style>
  </defs>
  <path id="Subtraction_16" data-name="Subtraction 16" class="cls-1" d="M2049,1142H0V225.36a283.359,283.359,0,0,1,34.046-34.12,205.049,205.049,0,0,1,34.768-23.684c22.671-12.088,46.073-18.217,69.556-18.217a139.091,139.091,0,0,1,37.318,5.169,160.715,160.715,0,0,1,35.722,14.957A201.671,201.671,0,0,1,244.9,193.388a258.3,258.3,0,0,1,30.62,32.067,247.146,247.146,0,0,0,30.947,32.088A203.228,203.228,0,0,0,340.723,281.5a167.372,167.372,0,0,0,36.645,14.986,145.134,145.134,0,0,0,38.108,5.181c23.816,0,47.15-6.074,69.353-18.055,23.595-12.731,45.708-32.05,65.726-57.42v-.737A283.466,283.466,0,0,1,584.68,191.24a205.135,205.135,0,0,1,34.767-23.684c22.671-12.088,46.073-18.217,69.556-18.217a139.1,139.1,0,0,1,37.318,5.169,160.742,160.742,0,0,1,35.722,14.957,201.614,201.614,0,0,1,33.489,23.923,258.135,258.135,0,0,1,30.621,32.067A247.371,247.371,0,0,0,857.1,257.545,203.185,203.185,0,0,0,891.357,281.5,167.367,167.367,0,0,0,928,296.49a145.088,145.088,0,0,0,38.106,5.183c23.866,0,47.249-6.1,69.5-18.135,23.641-12.788,45.794-32.2,65.844-57.685v-.4a283.509,283.509,0,0,1,34.127-34.215,205.01,205.01,0,0,1,34.768-23.684c22.671-12.088,46.073-18.217,69.556-18.217a139.1,139.1,0,0,1,37.318,5.169,160.722,160.722,0,0,1,35.72,14.957,201.594,201.594,0,0,1,33.488,23.923,258.173,258.173,0,0,1,30.62,32.067A247.368,247.368,0,0,0,1408,257.546a203.035,203.035,0,0,0,34.259,23.956A167.367,167.367,0,0,0,1478.9,296.49a145.124,145.124,0,0,0,38.109,5.182c23.87,0,47.256-6.1,69.508-18.142,23.647-12.79,45.8-32.2,65.855-57.7v-.379A283.652,283.652,0,0,1,1686.5,191.24a205.116,205.116,0,0,1,34.768-23.684c22.672-12.088,46.073-18.217,69.554-18.217a139.087,139.087,0,0,1,37.318,5.169,160.736,160.736,0,0,1,35.721,14.957,201.7,201.7,0,0,1,33.488,23.923,258.194,258.194,0,0,1,30.62,32.067,247.479,247.479,0,0,0,30.948,32.089,203.266,203.266,0,0,0,34.259,23.956,167.4,167.4,0,0,0,36.646,14.988,149.141,149.141,0,0,0,19.18,3.9V1142Z" transform="translate(0 -149.34)"/>
</svg>
