<svg xmlns="http://www.w3.org/2000/svg" width="154" height="7.999" viewBox="0 0 154 7.999">
  <path id="contact-underline" d="M134.24,36.656l-7.129,3.851-6.974-3.851-7.187,3.851-6.928-3.789-7.072,3.789L96,38.894h0l-4.091-2.238-7.144,3.851h0l-6.974-3.85L70.6,40.507h0l-7.039-3.851-7.146,3.851L49.48,36.656l-7.212,3.851L35.24,36.656l-7.129,3.851-6.974-3.851-7.187,3.851L6.908,36.656,0,40.379V36.235l6.908-3.727,7.041,3.855,7.187-3.855,6.974,3.855,7.129-3.855,7.029,3.855,7.212-3.855,6.931,3.855.691-.371,6.459-3.484.021.012.022-.012v.023l7,3.831,7.187-3.855,6.974,3.855,7.145-3.855,7.041,3.855L99,36.336v-.1l6.908-3.727.113.062.115-.062L109,34.091v.11l3.949,2.162,7.187-3.855,6.974,3.855,7.129-3.855,7.029,3.855,7.212-3.855,5.52,3.07v4.143l-5.52-3.065-7.212,3.851Z" transform="translate(0 -32.508)" fill="#feb332"/>
</svg>
