<svg xmlns="http://www.w3.org/2000/svg" width="96.236" height="7.999" viewBox="0 0 96.236 7.999">
  <path id="home-underline" d="M70.838,24.507h0L63.8,20.656l-7.146,3.851-6.935-3.851-7.212,3.851-7.029-3.851-7.129,3.851-6.974-3.851-7.187,3.851L7.145,20.656,0,24.507V20.363l7.145-3.855,7.041,3.855,7.187-3.855,6.974,3.855,7.129-3.855,7.029,3.855,7.212-3.855,6.931,3.855.691-.371L63.8,16.508l.021.012.022-.012v.023l7,3.831,7.187-3.855L85,20.363l7.145-3.855,4.091,2.24v4.146l-4.091-2.238L85,24.507l-6.975-3.851-7.187,3.851Z" transform="translate(0 -16.508)" fill="#feb332"/>
</svg>
