<svg xmlns="http://www.w3.org/2000/svg" width="84.63" height="6.999" viewBox="0 0 84.63 6.999">
  <path id="project-underline" d="M63.8,28.656l-7.146,3.851v0l0,0-6.931-3.851-7.212,3.851-7.029-3.851-7.129,3.851-6.974-3.851-7.187,3.851L7.145,28.656,0,32.507V29.363l7.145-3.855,7.041,3.855,7.187-3.855,6.974,3.855,7.129-3.855,7.029,3.855,7.212-3.855,6.931,3.855.691-.371L63.8,25.508l.021.012.022-.012v.023l7,3.831,7.187-3.855,6.6,3.65V32.3l-6.6-3.647-7.187,3.851Z" transform="translate(0 -25.508)" fill="#feb332"/>
</svg>
