<svg xmlns="http://www.w3.org/2000/svg" width="165" height="7.999" viewBox="0 0 165 7.999">
  <path id="projects-underline" d="M148.48,48.656l-7.212,3.851-7.029-3.851-7.129,3.851-6.974-3.851-7.187,3.851-6.928-3.789-7.072,3.789L96,50.893h0l-4.091-2.238-7.144,3.851h0l-6.974-3.85L70.6,52.507h0l-7.039-3.851-7.146,3.851L49.48,48.656l-7.212,3.851L35.24,48.656l-7.129,3.851-6.974-3.851-7.187,3.851L6.908,48.656,0,52.379V48.235l6.908-3.727,7.041,3.855,7.187-3.855,6.974,3.855,7.129-3.855,7.029,3.855,7.212-3.855,6.931,3.855.691-.371,6.459-3.484.021.012.022-.012v.023l7,3.831,7.187-3.855,6.974,3.855,7.145-3.855,7.041,3.855L99,48.335v-.1l6.908-3.727.113.062.115-.062L109,46.091v.11l3.949,2.162,7.187-3.855,6.974,3.855,7.129-3.855,7.029,3.855,7.212-3.855,6.931,3.855.691-.371,6.459-3.484.021.012.022-.012v.023l2.4,1.312V49.99l-2.438-1.334-7.146,3.851Z" transform="translate(0 -44.508)" fill="#feb332"/>
</svg>
