<svg xmlns="http://www.w3.org/2000/svg" width="109" height="7.999" viewBox="0 0 109 7.999">
  <path id="skills-underline" d="M96,20.894h0l-4.091-2.238-7.144,3.851h0l-6.974-3.85L70.6,22.507h0l-7.039-3.851-7.146,3.851L49.48,18.656l-7.212,3.851L35.24,18.656l-7.129,3.851-6.974-3.851-7.187,3.851L6.908,18.656,0,22.379V18.235l6.908-3.727,7.041,3.855,7.187-3.855,6.974,3.855,7.129-3.855,7.029,3.855,7.212-3.855,6.931,3.855.691-.371,6.459-3.484.021.012.022-.012v.023l7,3.831,7.187-3.855,6.974,3.855,7.145-3.855,7.041,3.855,7.187-3.855L109,16.091v4.147l-2.864-1.581-7.187,3.851Z" transform="translate(0 -14.508)" fill="#feb332"/>
</svg>
