<svg id="undraw_new_message_2gfk" xmlns="http://www.w3.org/2000/svg" xmlns:xlink="http://www.w3.org/1999/xlink" width="867.19" height="754.307" viewBox="0 0 867.19 754.307">
  <defs>
    <style>
      .cls-1 {
        fill: url(#linear-gradient);
      }

      .cls-2, .cls-24 {
        fill: #fff;
      }

      .cls-3 {
        opacity: 0.6;
      }

      .cls-4 {
        fill: #0056b0;
      }

      .cls-5 {
        fill: url(#linear-gradient-2);
      }

      .cls-6 {
        fill: url(#linear-gradient-3);
      }

      .cls-7 {
        fill: #f55f44;
      }

      .cls-8 {
        fill: url(#linear-gradient-4);
      }

      .cls-9 {
        fill: url(#linear-gradient-5);
      }

      .cls-10 {
        fill: url(#linear-gradient-6);
      }

      .cls-11 {
        fill: url(#linear-gradient-7);
      }

      .cls-12 {
        fill: url(#linear-gradient-8);
      }

      .cls-13 {
        fill: url(#linear-gradient-9);
      }

      .cls-14 {
        fill: url(#linear-gradient-10);
      }

      .cls-15 {
        fill: url(#linear-gradient-11);
      }

      .cls-16 {
        fill: url(#linear-gradient-12);
      }

      .cls-17 {
        fill: #47e6b1;
      }

      .cls-18, .cls-23 {
        fill: #535461;
      }

      .cls-18 {
        opacity: 0.25;
      }

      .cls-19, .cls-20 {
        fill: none;
        stroke-miterlimit: 10;
        stroke-width: 2px;
      }

      .cls-19 {
        stroke: #707070;
      }

      .cls-20 {
        stroke: #535461;
      }

      .cls-21 {
        opacity: 0.7;
      }

      .cls-22 {
        fill: url(#linear-gradient-13);
      }

      .cls-24 {
        opacity: 0.1;
      }

      .cls-25 {
        fill: #4d8af0;
      }

      .cls-26 {
        fill: #3ad29f;
      }

      .cls-27 {
        fill: url(#linear-gradient-14);
      }

      .cls-28 {
        fill: #eee;
      }

      .cls-29 {
        fill: #106ccc;
      }
    </style>
    <linearGradient id="linear-gradient" x1="-5.376" y1="1.122" x2="-5.376" y2="0.122" gradientUnits="objectBoundingBox">
      <stop offset="0" stop-color="gray" stop-opacity="0.251"/>
      <stop offset="0.54" stop-color="gray" stop-opacity="0.122"/>
      <stop offset="1" stop-color="gray" stop-opacity="0.102"/>
    </linearGradient>
    <linearGradient id="linear-gradient-2" x1="-15.963" y1="-0.371" x2="-15.963" y2="-0.985" xlink:href="#linear-gradient"/>
    <linearGradient id="linear-gradient-3" x1="-16.934" y1="-0.59" x2="-16.934" y2="-1.204" xlink:href="#linear-gradient"/>
    <linearGradient id="linear-gradient-4" x1="-4.961" y1="1.023" x2="-4.961" y2="0.023" xlink:href="#linear-gradient"/>
    <linearGradient id="linear-gradient-5" x1="-13.016" y1="-0.196" x2="-13.016" y2="-0.811" xlink:href="#linear-gradient"/>
    <linearGradient id="linear-gradient-6" x1="-11.166" y1="1.736" x2="-11.166" y2="1.122" xlink:href="#linear-gradient"/>
    <linearGradient id="linear-gradient-7" x1="0.934" y1="-0.377" x2="0.934" y2="-1.377" xlink:href="#linear-gradient"/>
    <linearGradient id="linear-gradient-8" x1="-5.014" y1="0.278" x2="-5.014" y2="-0.336" xlink:href="#linear-gradient"/>
    <linearGradient id="linear-gradient-9" x1="-8.297" y1="2.894" x2="-8.297" y2="2.279" xlink:href="#linear-gradient"/>
    <linearGradient id="linear-gradient-10" x1="0.219" y1="-0.207" x2="0.219" y2="-1.207" xlink:href="#linear-gradient"/>
    <linearGradient id="linear-gradient-11" x1="-4.838" y1="0.289" x2="-4.838" y2="-0.326" xlink:href="#linear-gradient"/>
    <linearGradient id="linear-gradient-12" x1="-5.971" y1="3.832" x2="-5.971" y2="3.217" xlink:href="#linear-gradient"/>
    <linearGradient id="linear-gradient-13" x1="0.5" y1="1" x2="0.5" y2="0.002" xlink:href="#linear-gradient"/>
    <linearGradient id="linear-gradient-14" x1="-1.655" y1="0.79" x2="-1.655" y2="-0.21" xlink:href="#linear-gradient"/>
  </defs>
  <rect id="Rectangle_104" data-name="Rectangle 104" class="cls-1" width="104.76" height="64.38" transform="translate(397.882 483.44) rotate(-16.6)"/>
  <rect id="Rectangle_105" data-name="Rectangle 105" class="cls-2" width="101.21" height="60.09" transform="translate(399.567 484.598) rotate(-16.6)"/>
  <g id="Group_141" data-name="Group 141" class="cls-3">
    <rect id="Rectangle_106" data-name="Rectangle 106" class="cls-4" width="12.88" height="9.53" transform="translate(420.202 493.077) rotate(163.4)"/>
    <rect id="Rectangle_107" data-name="Rectangle 107" class="cls-4" width="49.44" height="3.09" transform="translate(470.659 497.378) rotate(163.4)"/>
    <rect id="Rectangle_108" data-name="Rectangle 108" class="cls-4" width="36.05" height="2.06" transform="translate(472.577 503.792) rotate(163.4)"/>
  </g>
  <rect id="Rectangle_109" data-name="Rectangle 109" class="cls-5" width="64.38" height="104.76" transform="translate(642.422 370.441) rotate(-78.98)"/>
  <rect id="Rectangle_110" data-name="Rectangle 110" class="cls-2" width="59.985" height="101.033" transform="matrix(0.19, -0.982, 0.982, 0.19, 642.649, 368.919)"/>
  <g id="Group_142" data-name="Group 142" class="cls-3">
    <rect id="Rectangle_111" data-name="Rectangle 111" class="cls-4" width="12.88" height="9.53" transform="translate(669.925 326.217) rotate(-168.98)"/>
    <rect id="Rectangle_112" data-name="Rectangle 112" class="cls-4" width="49.44" height="3.09" transform="translate(712.635 353.42) rotate(-168.98)"/>
    <rect id="Rectangle_113" data-name="Rectangle 113" class="cls-4" width="36.05" height="2.06" transform="translate(711.36 360.001) rotate(-168.98)"/>
  </g>
  <rect id="Rectangle_114" data-name="Rectangle 114" class="cls-6" width="64.38" height="104.76" transform="translate(659.617 457.626) rotate(-23.45)"/>
  <rect id="Rectangle_115" data-name="Rectangle 115" class="cls-2" width="60.09" height="101.21" transform="translate(662.597 457.74) rotate(-23.45)"/>
  <g id="Group_143" data-name="Group 143" class="cls-3">
    <rect id="Rectangle_116" data-name="Rectangle 116" class="cls-7" width="12.88" height="9.53" transform="translate(711.619 455.286) rotate(-113.45)"/>
    <rect id="Rectangle_117" data-name="Rectangle 117" class="cls-7" width="49.44" height="3.09" transform="translate(713.366 505.897) rotate(-113.45)"/>
    <rect id="Rectangle_118" data-name="Rectangle 118" class="cls-7" width="36.05" height="2.06" transform="translate(707.215 508.566) rotate(-113.45)"/>
  </g>
  <rect id="Rectangle_119" data-name="Rectangle 119" class="cls-8" width="104.76" height="64.38" transform="translate(331.425 179.951) rotate(-16.6)"/>
  <rect id="Rectangle_120" data-name="Rectangle 120" class="cls-2" width="101.21" height="60.09" transform="translate(333.11 181.119) rotate(-16.6)"/>
  <g id="Group_144" data-name="Group 144" class="cls-3">
    <rect id="Rectangle_121" data-name="Rectangle 121" class="cls-7" width="12.88" height="9.53" transform="translate(353.69 189.616) rotate(163.4)"/>
    <rect id="Rectangle_122" data-name="Rectangle 122" class="cls-7" width="49.44" height="3.09" transform="translate(404.156 193.914) rotate(163.4)"/>
    <rect id="Rectangle_123" data-name="Rectangle 123" class="cls-7" width="36.05" height="2.06" transform="translate(406.065 200.33) rotate(163.4)"/>
  </g>
  <rect id="Rectangle_124" data-name="Rectangle 124" class="cls-9" width="64.38" height="104.76" transform="translate(575.941 66.967) rotate(-78.98)"/>
  <rect id="Rectangle_125" data-name="Rectangle 125" class="cls-2" width="60.09" height="101.21" transform="translate(577.718 64.579) rotate(-78.98)"/>
  <g id="Group_145" data-name="Group 145" class="cls-3">
    <rect id="Rectangle_126" data-name="Rectangle 126" class="cls-4" width="12.88" height="9.53" transform="translate(603.441 22.749) rotate(-168.98)"/>
    <rect id="Rectangle_127" data-name="Rectangle 127" class="cls-4" width="49.44" height="3.09" transform="translate(646.151 49.952) rotate(-168.98)"/>
    <rect id="Rectangle_128" data-name="Rectangle 128" class="cls-4" width="36.05" height="2.06" transform="translate(644.877 56.524) rotate(-168.98)"/>
  </g>
  <rect id="Rectangle_129" data-name="Rectangle 129" class="cls-10" width="64.38" height="104.76" transform="translate(593.123 154.159) rotate(-23.45)"/>
  <rect id="Rectangle_130" data-name="Rectangle 130" class="cls-2" width="60.09" height="101.21" transform="translate(596.112 154.269) rotate(-23.45)"/>
  <g id="Group_146" data-name="Group 146" class="cls-3">
    <rect id="Rectangle_131" data-name="Rectangle 131" class="cls-7" width="12.88" height="9.53" transform="translate(645.139 151.821) rotate(-113.45)"/>
    <rect id="Rectangle_132" data-name="Rectangle 132" class="cls-7" width="49.44" height="3.09" transform="translate(646.875 202.432) rotate(-113.45)"/>
    <rect id="Rectangle_133" data-name="Rectangle 133" class="cls-7" width="36.05" height="2.06" transform="translate(640.729 205.11) rotate(-113.45)"/>
  </g>
  <rect id="Rectangle_134" data-name="Rectangle 134" class="cls-11" width="104.76" height="64.38" transform="translate(49.374 408.344) rotate(-16.6)"/>
  <rect id="Rectangle_135" data-name="Rectangle 135" class="cls-2" width="101.21" height="60.09" transform="translate(51.069 409.51) rotate(-16.6)"/>
  <g id="Group_147" data-name="Group 147" class="cls-3">
    <rect id="Rectangle_136" data-name="Rectangle 136" class="cls-4" width="12.88" height="9.53" transform="translate(71.694 418.045) rotate(163.4)"/>
    <rect id="Rectangle_137" data-name="Rectangle 137" class="cls-4" width="49.44" height="3.09" transform="translate(122.16 422.343) rotate(163.4)"/>
    <rect id="Rectangle_138" data-name="Rectangle 138" class="cls-4" width="36.05" height="2.06" transform="translate(124.078 428.757) rotate(163.4)"/>
  </g>
  <rect id="Rectangle_139" data-name="Rectangle 139" class="cls-12" width="64.38" height="104.76" transform="translate(293.921 295.377) rotate(-78.98)"/>
  <rect id="Rectangle_140" data-name="Rectangle 140" class="cls-2" width="59.985" height="101.033" transform="matrix(0.19, -0.982, 0.982, 0.19, 294.665, 293.397)"/>
  <g id="Group_148" data-name="Group 148" class="cls-3">
    <rect id="Rectangle_141" data-name="Rectangle 141" class="cls-7" width="12.88" height="9.53" transform="translate(321.411 251.149) rotate(-168.98)"/>
    <rect id="Rectangle_142" data-name="Rectangle 142" class="cls-7" width="49.44" height="3.09" transform="translate(364.131 278.354) rotate(-168.98)"/>
    <rect id="Rectangle_143" data-name="Rectangle 143" class="cls-7" width="36.05" height="2.06" transform="translate(362.856 284.934) rotate(-168.98)"/>
  </g>
  <rect id="Rectangle_144" data-name="Rectangle 144" class="cls-13" width="64.38" height="104.76" transform="translate(311.107 382.566) rotate(-23.45)"/>
  <rect id="Rectangle_145" data-name="Rectangle 145" class="cls-2" width="60.09" height="101.21" transform="translate(314.095 382.675) rotate(-23.45)"/>
  <g id="Group_149" data-name="Group 149" class="cls-3">
    <rect id="Rectangle_146" data-name="Rectangle 146" class="cls-7" width="12.88" height="9.53" transform="translate(363.115 380.227) rotate(-113.45)"/>
    <rect id="Rectangle_147" data-name="Rectangle 147" class="cls-7" width="49.44" height="3.09" transform="translate(364.862 430.829) rotate(-113.45)"/>
    <rect id="Rectangle_148" data-name="Rectangle 148" class="cls-7" width="36.05" height="2.06" transform="translate(358.714 433.503) rotate(-113.45)"/>
  </g>
  <rect id="Rectangle_149" data-name="Rectangle 149" class="cls-14" width="104.76" height="64.38" transform="translate(61.187 227.117) rotate(-16.6)"/>
  <rect id="Rectangle_150" data-name="Rectangle 150" class="cls-2" width="101.498" height="60.261" transform="translate(64.504 227.749) rotate(-16.809)"/>
  <g id="Group_150" data-name="Group 150" class="cls-3">
    <rect id="Rectangle_151" data-name="Rectangle 151" class="cls-4" width="12.88" height="9.53" transform="translate(83.478 236.82) rotate(163.4)"/>
    <rect id="Rectangle_152" data-name="Rectangle 152" class="cls-4" width="49.44" height="3.09" transform="translate(133.935 241.121) rotate(163.4)"/>
    <rect id="Rectangle_153" data-name="Rectangle 153" class="cls-4" width="36.05" height="2.06" transform="translate(135.853 247.535) rotate(163.4)"/>
  </g>
  <rect id="Rectangle_154" data-name="Rectangle 154" class="cls-15" width="64.267" height="104.577" transform="matrix(0.19, -0.982, 0.982, 0.19, 304.957, 114.798)"/>
  <rect id="Rectangle_155" data-name="Rectangle 155" class="cls-2" width="60.09" height="101.21" transform="translate(307.493 111.765) rotate(-78.98)"/>
  <g id="Group_151" data-name="Group 151" class="cls-3">
    <rect id="Rectangle_156" data-name="Rectangle 156" class="cls-7" width="12.88" height="9.53" transform="translate(333.216 69.933) rotate(-168.98)"/>
    <path id="Path_244" data-name="Path 244" class="cls-7" d="M0,0H49.44V3.09H0Z" transform="translate(375.928 97.126) rotate(-168.98)"/>
    <rect id="Rectangle_158" data-name="Rectangle 158" class="cls-7" width="36.05" height="2.06" transform="translate(374.643 103.707) rotate(-168.98)"/>
  </g>
  <rect id="Rectangle_159" data-name="Rectangle 159" class="cls-16" width="64.38" height="104.76" transform="translate(322.906 201.347) rotate(-23.45)"/>
  <rect id="Rectangle_160" data-name="Rectangle 160" class="cls-2" width="60.09" height="101.21" transform="translate(325.885 201.46) rotate(-23.45)"/>
  <g id="Group_152" data-name="Group 152" class="cls-3">
    <rect id="Rectangle_161" data-name="Rectangle 161" class="cls-17" width="12.88" height="9.53" transform="translate(374.92 199.007) rotate(-113.45)"/>
    <rect id="Rectangle_162" data-name="Rectangle 162" class="cls-17" width="49.44" height="3.09" transform="translate(376.657 249.619) rotate(-113.45)"/>
    <rect id="Rectangle_163" data-name="Rectangle 163" class="cls-17" width="36.05" height="2.06" transform="translate(370.515 252.274) rotate(-113.45)"/>
  </g>
  <circle id="Ellipse_42" data-name="Ellipse 42" class="cls-18" cx="5.47" cy="5.47" r="5.47" transform="translate(58.43 55.79)"/>
  <circle id="Ellipse_43" data-name="Ellipse 43" class="cls-18" cx="5.47" cy="5.47" r="5.47" transform="translate(629.49 534.89)"/>
  <circle id="Ellipse_44" data-name="Ellipse 44" class="cls-18" cx="5.47" cy="5.47" r="5.47" transform="translate(146.32 507.69)"/>
  <circle id="Ellipse_45" data-name="Ellipse 45" class="cls-18" cx="5.47" cy="5.47" r="5.47" transform="translate(680.34 431.55)"/>
  <circle id="Ellipse_46" data-name="Ellipse 46" class="cls-18" cx="5.47" cy="5.47" r="5.47" transform="translate(731.81 180.63)"/>
  <path id="Path_215" data-name="Path 215" class="cls-18" d="M333.44,4.87h-4.86V0h-1.99V4.87h-4.86V6.85h4.86v4.86h1.99V6.85h4.86Z"/>
  <path id="Path_216" data-name="Path 216" class="cls-18" d="M146.29,79.4h-4.86V74.54h-1.99V79.4h-4.86v1.99h4.86v4.86h1.99V81.39h4.86Z"/>
  <path id="Path_217" data-name="Path 217" class="cls-18" d="M70.16,357.13H65.3v-4.86H63.31v4.86H58.45v1.99h4.86v4.86H65.3v-4.86h4.86Z"/>
  <path id="Path_218" data-name="Path 218" class="cls-18" d="M59.23,159.07H54.36V154.2H52.38v4.87H47.51v1.98h4.87v4.87h1.98v-4.87h4.87Z"/>
  <path id="Path_219" data-name="Path 219" class="cls-18" d="M11.71,295.17H6.85V290.3H4.87v4.87H0v1.98H4.87v4.86H6.85v-4.86h4.86Z"/>
  <path id="Path_220" data-name="Path 220" class="cls-18" d="M867.19,224.99h-4.86v-4.86h-1.99v4.86h-4.86v1.99h4.86v4.86h1.99v-4.86h4.86Z"/>
  <path id="Path_221" data-name="Path 221" class="cls-18" d="M697.76,288.26H692.9v-4.87h-1.99v4.87h-4.86v1.98h4.86v4.87h1.99v-4.87h4.86Z"/>
  <path id="Path_222" data-name="Path 222" class="cls-18" d="M553.08,117.62h-4.87v-4.86h-1.98v4.86h-4.87v1.99h4.87v4.86h1.98v-4.86h4.87Z"/>
  <path id="Path_223" data-name="Path 223" class="cls-19" d="M440.3,469.38c-3.5,11.36,1.75,24.79,12,30.77,4.29,2.5,9.24,3.77,13.41,6.48,9.05,5.89,12.62,17.19,15.56,27.58,3.37,11.95,6.76,24.58,3.67,36.6-2,7.66-6.45,14.44-9,21.94a45.781,45.781,0,0,0-2.17,19.54c.37,3.5,1.25,7.14,3.64,9.72,3.46,3.73,9,4.29,14,5.19a68.19,68.19,0,0,1,49,38" transform="translate(-166.4 -73.64)"/>
  <path id="Path_224" data-name="Path 224" class="cls-20" d="M441.37,469.38c-3.5,11.36,1.75,24.79,12,30.77,4.29,2.5,9.24,3.77,13.41,6.48,9.05,5.89,12.62,17.19,15.56,27.58,3.37,11.95,6.76,24.58,3.67,36.6-2,7.66-6.45,14.44-9,21.94a45.781,45.781,0,0,0-2.17,19.54c.37,3.5,1.25,7.14,3.64,9.72,3.46,3.73,9,4.29,14,5.19a68.19,68.19,0,0,1,49,38" transform="translate(-166.4 -73.64)"/>
  <path id="Path_225" data-name="Path 225" class="cls-19" d="M573.84,384.5c-8.63,12-17.59,25-18.33,39.77-1.13,22.73,17,41.32,25.17,62.58a74.38,74.38,0,0,1-2.5,58.15c-4,8.19-9.61,16.32-8.92,25.39.42,5.54,3.19,10.57,5.42,15.66a88.29,88.29,0,0,1-5.12,79.72" transform="translate(-166.4 -73.64)"/>
  <path id="Path_226" data-name="Path 226" class="cls-20" d="M574.91,384.5c-8.63,12-17.59,25-18.33,39.77-1.13,22.73,17,41.32,25.17,62.58A74.38,74.38,0,0,1,579.26,545c-4,8.19-9.61,16.32-8.92,25.39.42,5.54,3.19,10.57,5.42,15.66a88.29,88.29,0,0,1-5.12,79.72" transform="translate(-166.4 -73.64)"/>
  <path id="Path_227" data-name="Path 227" class="cls-19" d="M695,492.76l4.17,34c.55,4.52,1,9.45-1.4,13.3-2.3,3.65-6.61,5.39-10,8.09-11,8.85-10,25.85-6.24,39.48s9.28,28.27,4,41.38c-2.18,5.41-6,10-8.91,15a46.07,46.07,0,0,0-5.51,28.58" transform="translate(-166.4 -73.64)"/>
  <path id="Path_228" data-name="Path 228" class="cls-20" d="M696,492.76l4.17,34c.55,4.52,1,9.45-1.4,13.3-2.3,3.65-6.61,5.39-10,8.09-11,8.85-10,25.85-6.24,39.48s9.28,28.27,4,41.38c-2.18,5.41-6,10-8.91,15a46.07,46.07,0,0,0-5.51,28.58" transform="translate(-166.4 -73.64)"/>
  <g id="Group_153" data-name="Group 153" class="cls-21">
    <path id="Path_229" data-name="Path 229" class="cls-22" d="M803.22,352.89A100.9,100.9,0,0,0,671.17,257a121.182,121.182,0,0,0,1.29-17.12A100.84,100.84,0,0,0,471,232.63a100.9,100.9,0,0,0-132.1,95.88c0,50.6,37.26,122.57,85.85,135.32l7.55,4.32-4.1,14.06h24.3l-5.28-14.08,7.52-4.3c37.54-9.85,68.31-55.05,80.37-98.44a73.681,73.681,0,0,0,21.51,9.79l7.55,4.32-4.1,14.06h24.3l-5.28-14.08,7.52-4.3a70.361,70.361,0,0,0,16-6.5c6.49,48.65,41,108.06,84.74,119.53l7.55,4.32-4.1,14.06h24.3l-5.28-14.08,7.52-4.3C766,475.46,803.22,403.49,803.22,352.89Z" transform="translate(-166.4 -73.64)"/>
  </g>
  <path id="Path_230" data-name="Path 230" class="cls-7" d="M289.93,403.41H266.42l4.11-14.11h14.11Z"/>
  <path id="Path_231" data-name="Path 231" class="cls-7" d="M541.57,328.33c0,53.89-43.69,132.85-97.58,132.85s-97.58-79-97.58-132.85a97.58,97.58,0,1,1,195.16,0Z" transform="translate(-166.4 -73.64)"/>
  <path id="Path_232" data-name="Path 232" class="cls-23" d="M284.64,389.89H270.53l-8.23-4.7h30.57Z"/>
  <path id="Path_233" data-name="Path 233" class="cls-24" d="M408.72,252.5s-41.15,22.34-47,67" transform="translate(-166.4 -73.64)"/>
  <path id="Path_234" data-name="Path 234" class="cls-25" d="M417.54,317.63H394.03l4.11-14.11h14.11Z"/>
  <path id="Path_235" data-name="Path 235" class="cls-25" d="M669.18,242.54c0,53.89-43.69,132.85-97.58,132.85S474,296.44,474,242.54a97.58,97.58,0,1,1,195.16,0Z" transform="translate(-166.4 -73.64)"/>
  <path id="Path_236" data-name="Path 236" class="cls-23" d="M412.25,304.11H398.14l-8.23-4.71h30.57Z"/>
  <path id="Path_237" data-name="Path 237" class="cls-24" d="M536.33,166.71s-41.15,22.34-47,67" transform="translate(-166.4 -73.64)"/>
  <path id="Path_238" data-name="Path 238" class="cls-26" d="M544.08,427H520.56l4.12-14.1h14.1Z"/>
  <path id="Path_239" data-name="Path 239" class="cls-26" d="M795.72,351.92c0,53.89-43.69,132.85-97.58,132.85s-97.58-79-97.58-132.85a97.58,97.58,0,1,1,195.16,0Z" transform="translate(-166.4 -73.64)"/>
  <path id="Path_240" data-name="Path 240" class="cls-23" d="M538.78,413.48h-14.1l-8.23-4.7h30.56Z"/>
  <path id="Path_241" data-name="Path 241" class="cls-24" d="M662.86,276.09s-41.15,22.34-47,67" transform="translate(-166.4 -73.64)"/>
  <rect id="Rectangle_164" data-name="Rectangle 164" class="cls-27" width="270.197" height="166.057" transform="translate(295.306 588.456) rotate(-2.862)"/>
  <rect id="Rectangle_165" data-name="Rectangle 165" class="cls-28" width="260.71" height="154.78" transform="translate(298.948 591.027) rotate(-2.93)"/>
  <rect id="Rectangle_166" data-name="Rectangle 166" class="cls-29" width="33.17" height="24.55" transform="translate(345.159 625.08) rotate(177.07)"/>
  <path id="Path_242" data-name="Path 242" class="cls-29" d="M0,0H127.37V7.96H0Z" transform="translate(468.846 666.581) rotate(177.07)"/>
  <path id="Path_243" data-name="Path 243" class="cls-29" d="M0,0H92.88V5.31H0Z" transform="translate(469.722 683.807) rotate(177.07)"/>
</svg>
