<svg xmlns="http://www.w3.org/2000/svg" width="2165.061" height="251.776" viewBox="0 0 2165.061 251.776" fill="#FEB332">
  <path id="Union_25" data-name="Union 25" d="M1987.364,116.353,1804.307,251.776,1625,116.353,1443,251.776v-.1l-.134.1-176.53-135.423L1082.624,251.776,903.607,116.353,722.06,251.776l-177.7-135.423L361.308,251.776,182,116.353,0,251.776V135.516L182,0,361.308,135.516,544.364,0l177.7,135.516L903.607,0l179.017,135.516L1266.336,0l176.53,135.516L1462.9,120.7,1625,0l.54.408.552-.408V.826l178.213,134.69L1987.364,0l177.7,135.516v116.26Z"/>
</svg>
