<svg xmlns="http://www.w3.org/2000/svg" width="100" height="11.629" viewBox="0 0 100 11.629">
  <defs>
    <style>
      .cls-1 {
        fill: #feb332;
      }
    </style>
  </defs>
  <path id="wavy-underline-xs" class="cls-1" d="M91.793,5.374l-8.455,6.255L75.056,5.374l-8.406,6.255v0l-.006,0L58.49,5.374,50,11.629,41.736,5.374l-8.385,6.255L25.143,5.374l-8.455,6.255L8.406,5.374,0,11.629V6.259L8.406,0l8.282,6.259L25.143,0l8.207,6.259L41.736,0,50,6.259,58.49,0l8.154,6.259.925-.684L75.056,0l.025.019L75.106,0V.038l8.231,6.221L91.793,0,100,6.259v5.37Z"/>
</svg>
