<svg xmlns="http://www.w3.org/2000/svg" width="2527.236" height="274.777" viewBox="0 0 2527.236 274.777">

  <path id="wavy-underline-md" fill="#ffffff" class="cls-1" d="M2165.061,325.286v0l-.029-.023-.03.022v-.046L1987.365,189.861,1804.308,325.283,1625,189.861,1443,325.283v-.1l-.134.1-176.53-135.423L1082.624,325.283,903.607,189.861,722.06,325.283l-177.7-135.423L361.308,325.283,182,189.861,0,325.283V186.023L182,50.508,361.308,186.023,544.364,50.508l177.7,135.516L903.607,50.508l179.017,135.516L1266.336,50.508l176.53,135.516,20.03-14.814L1625,50.508l.541.408.551-.408v.826l178.214,134.69L1987.365,50.508,2165.031,186,2347,50.508l179.306,135.516.928-.687V324.6l-.928.686L2347,189.861,2165.061,325.238v.047Z" transform="translate(0 -50.508)"/>
</svg>
