<svg xmlns="http://www.w3.org/2000/svg" width="2165.061" height="274.776" viewBox="0 0 2165.061 274.776">
  <defs>
    <style>
      .cls-1 {
        fill: #feb332;
      }
    </style>
  </defs>
  <path id="wavy-underline" class="cls-1" d="M1987.364,139.353,1804.307,274.776,1625,139.353,1443,274.776v-.1l-.134.1-176.53-135.423L1082.624,274.776,903.607,139.353,722.06,274.776l-177.7-135.423L361.308,274.776,182,139.353,0,274.776V135.516L182,0,361.308,135.516,544.364,0l177.7,135.516L903.607,0l179.017,135.516L1266.336,0l176.53,135.516L1462.9,120.7,1625,0l.54.409.553-.409V.826l178.213,134.69L1987.364,0l177.7,135.516V274.776Z"/>
</svg>
