<svg xmlns="http://www.w3.org/2000/svg" width="297.829" height="16.368" viewBox="0 0 297.829 16.368">
  <g id="Group_187" data-name="Group 187" transform="translate(9325.938 -3163.956)">
    <path id="Path_406" data-name="Path 406" d="M-9348.287,3292.788l12.046-10.583,12.667,9.939,12.729-9.975,12.717,9.977,12.689-9.965,12.748,9.956,12.672-9.931,12.035,10.591" transform="translate(24 -115)" fill="none" stroke="#707070" stroke-width="5"/>
    <path id="Path_407" data-name="Path 407" d="M-9348.287,3292.788l12.046-10.583,12.667,9.939,12.729-9.975,12.717,9.977,12.689-9.965,12.748,9.956,12.672-9.931,12.035,10.591" transform="translate(121.225 -115)" fill="none" stroke="#707070" stroke-width="5"/>
    <path id="Path_408" data-name="Path 408" d="M-9348.287,3292.788l12.046-10.583,12.667,9.939,12.729-9.975,12.717,9.977,12.689-9.965,12.748,9.956,12.672-9.931,12.035,10.591" transform="translate(121.225 -115)" fill="none" stroke="#707070" stroke-width="5"/>
    <path id="Path_409" data-name="Path 409" d="M-9348.287,3292.788l12.046-10.583,12.667,9.939,12.729-9.975,12.717,9.977,12.689-9.965,12.748,9.956,12.672-9.931,12.035,10.591" transform="translate(218.225 -115)" fill="none" stroke="#707070" stroke-width="5"/>
  </g>
</svg>
