<svg xmlns="http://www.w3.org/2000/svg" width="4330.061" height="274.776" viewBox="0 0 4330.061 274.776">
  <defs>
    <style>
      .cls-1 {
        fill: #feb332;
      }
    </style>
  </defs>
  <path id="wavy-underline-xl" class="cls-1" d="M4152.364,139.353,3969.307,274.776,3790,139.353,3608,274.776v-.1l-.134.1L3431.336,139.353,3247.625,274.776,3068.607,139.353,2887.06,274.776l-177.7-135.423L2526.308,274.776,2347,139.353,2165.061,274.731v.045l-.03-.023-.031.023v-.046L1987.364,139.353,1804.307,274.776,1625,139.353,1443,274.776v-.1l-.134.1L1266.336,139.353,1082.624,274.776,903.607,139.353,722.06,274.776l-177.7-135.423L361.308,274.776,182,139.353,0,274.776V135.516L182,0,361.308,135.516,544.364,0l177.7,135.516L903.607,0l179.017,135.516L1266.336,0l176.529,135.516L1462.9,120.7,1625,0l.54.409.552-.409V.826l178.213,134.69L1987.364,0l177.666,135.493L2347,0l179.306,135.516L2709.364,0l177.7,135.516L3068.607,0l179.018,135.516L3431.336,0l176.529,135.516L3627.9,120.7,3790,0l.54.409.552-.409V.826l178.213,134.69L4152.364,0l177.7,135.516v139.26Z"/>
</svg>
